# Blender v2.78 (sub 0) OBJ File: 'PineTree_Adult.blend'
# www.blender.org
mtllib PineTree_Adult.mtl
o Cylinder
v -0.080804 3.960144 -1.000805
v 0.325225 5.958554 0.169785
v 0.558722 3.883407 -0.744356
v 0.336158 5.957205 0.170016
v 0.829096 3.797221 -0.099598
v 0.343446 5.954704 0.177861
v 0.552527 3.755346 0.554955
v 0.342812 5.952516 0.188726
v -0.107856 3.782122 0.816028
v 0.334626 5.951922 0.196239
v -0.745686 3.858573 0.531890
v 0.323691 5.953270 0.195998
v -0.988794 3.940163 -0.111362
v 0.316413 5.955770 0.188151
v -0.713918 3.982323 -0.738225
v 0.317050 5.957958 0.177296
v -0.067052 4.067265 -0.566164
v 0.305886 4.028003 -0.426054
v 0.471570 3.997196 -0.060030
v 0.328867 3.993577 0.319007
v -0.040106 4.019516 0.484887
v -0.415103 4.059125 0.338945
v -0.575010 4.088959 -0.029184
v -0.430248 4.092230 -0.402388
v -0.271347 3.040555 -1.191793
v 0.715960 2.995988 -0.867353
v 1.198625 3.029897 -0.315331
v 1.126003 2.911490 0.621725
v 0.211208 2.927612 1.171110
v -0.788158 2.836059 1.015894
v -1.234712 2.836059 0.187122
v -1.043712 2.876088 -0.626846
v -0.302175 3.025741 -0.843469
v 0.383602 3.025741 -0.814857
v 0.848287 3.025741 -0.309706
v 0.819674 3.025741 0.376071
v 0.314524 3.025741 0.840757
v -0.371253 3.025741 0.812144
v -0.835938 3.025741 0.306994
v -0.807326 3.025741 -0.378784
v -0.649296 1.487761 -1.704318
v 0.777709 1.524617 -1.782661
v 1.656557 1.495158 -0.601390
v 1.561761 1.444910 0.813095
v 0.600623 1.354837 1.641659
v -0.605618 1.614733 1.755486
v -1.664707 1.479470 0.593579
v -1.809199 1.644455 -0.783391
v -0.022968 5.020613 -0.394965
v 0.261419 4.985859 -0.337775
v 0.418414 4.925496 -0.095496
v 0.351054 4.875728 0.190047
v 0.098786 4.865707 0.346431
v -0.185601 4.900462 0.282016
v -0.335561 4.959638 0.039653
v -0.268200 5.009407 -0.238663
v 0.345349 4.420098 -0.499680
v 0.553239 4.359045 -0.105753
v 0.415830 4.325524 0.324316
v 0.013326 4.339222 0.530629
v -0.410653 4.390792 0.392034
v -0.607546 4.449993 -0.002350
v -0.469765 4.483450 -0.421239
v -0.078257 4.471606 -0.627093
v 0.089607 1.556701 -0.262873
v 0.223599 1.537817 -0.120905
v 0.226143 1.537817 0.069691
v 0.093170 1.537817 0.206262
v -0.097426 1.537817 0.208807
v -0.204709 1.562922 0.101245
v -0.236541 1.537817 -0.114763
v -0.099936 1.570229 -0.263175
v 0.312428 0.044822 -0.462578
v 0.505691 0.044822 -0.142983
v 0.402700 0.044822 0.255010
v 0.048450 0.044822 0.463607
v -0.284913 0.044822 0.357377
v -0.512060 0.044822 0.073709
v -0.407545 0.044822 -0.341514
v -0.028476 0.044822 -0.559964
v 0.117009 1.202368 -0.322698
v -0.112274 1.218752 -0.337492
v -0.288395 1.179497 -0.168892
v -0.266610 1.209902 0.094958
v -0.145306 1.179497 0.232968
v 0.085259 1.179497 0.244652
v 0.256555 1.179497 0.089879
v 0.268238 1.179497 -0.140686
v 0.185760 0.623039 -0.365319
v -0.320312 0.612729 -0.227590
v -0.187554 0.612729 0.266982
v 0.302885 0.612729 0.143826
v -0.073817 0.630424 -0.410457
v -0.350444 0.626435 0.082899
v 0.069666 0.612729 0.315150
v 0.346652 0.612729 -0.142229
vn 0.2229 0.4394 -0.8702
vn 0.8415 0.1966 -0.5033
vn 0.9743 0.0094 0.2251
vn 0.5325 0.0033 0.8464
vn -0.1904 0.1730 0.9663
vn -0.7300 0.3968 0.5565
vn 0.1155 0.9724 0.2027
vn -0.8272 0.5538 -0.0950
vn -0.4618 0.5782 -0.6727
vn 0.1473 -0.8112 -0.5659
vn 0.3120 0.4616 -0.8304
vn 0.0607 -0.9666 0.2488
vn -0.2065 -0.9458 0.2506
vn -0.5277 -0.8119 -0.2498
vn 0.3807 -0.8903 -0.2498
vn -0.2767 -0.7724 -0.5717
vn 0.3021 -0.9496 0.0836
vn -0.4487 -0.8891 0.0907
vn 0.4516 -0.8912 0.0423
vn -0.5185 0.4618 -0.7196
vn -0.7812 0.4729 0.4076
vn 0.4241 0.5364 0.7296
vn 0.6791 0.5540 -0.4815
vn -0.8650 0.4468 -0.2283
vn -0.2029 0.5048 0.8391
vn 0.7868 0.5894 0.1834
vn 0.6841 0.4942 -0.5364
vn 0.0932 -0.9116 -0.4004
vn -0.1361 -0.9874 -0.0805
vn -0.0289 -0.9995 0.0110
vn 0.2342 -0.9625 0.1369
vn 0.3846 -0.8849 -0.2627
vn -0.2062 -0.9395 -0.2737
vn -0.0322 -0.9976 0.0609
vn 0.0105 -0.9996 0.0258
vn -0.8461 0.5255 0.0896
vn 0.1064 0.4911 0.8646
vn 0.8921 0.4475 0.0631
vn -0.0291 0.5150 -0.8567
vn -0.5125 0.5298 -0.6758
vn -0.6675 0.4776 0.5713
vn 0.5774 0.4435 0.6855
vn -0.4500 0.4130 -0.7918
vn -0.8729 0.4433 -0.2039
vn -0.7680 0.4075 0.4941
vn -0.2232 0.3276 0.9181
vn 0.4712 0.2418 0.8482
vn 0.9357 0.1996 0.2910
vn 0.8619 0.2349 -0.4495
vn 0.2755 0.3266 -0.9041
vn 0.3441 0.5275 -0.7768
vn 0.8367 0.4427 -0.3225
vn 0.8532 0.3846 0.3524
vn 0.3832 0.3888 0.8378
vn -0.2832 0.4494 0.8473
vn -0.7530 0.5292 0.3911
vn -0.7680 0.5850 -0.2608
vn -0.3208 0.5858 -0.7442
vn -0.0304 -0.9995 -0.0019
vn -0.0475 -0.9981 -0.0393
vn -0.0109 -0.9924 -0.1227
vn -0.2121 -0.9770 -0.0211
vn 0.0758 -0.9956 0.0559
vn -0.0127 -0.9917 -0.1283
vn -0.0687 -0.9942 0.0831
vn 0.2272 0.2340 -0.9453
vn 0.0000 -1.0000 -0.0000
vn -0.9569 0.2266 -0.1818
vn -0.2465 0.2240 0.9429
vn 0.9501 0.2363 0.2038
vn -0.5324 0.2068 -0.8208
vn -0.7474 0.2128 0.6294
vn 0.5293 0.2237 0.8184
vn 0.8135 0.2478 -0.5262
vn 0.7517 0.1478 -0.6427
vn 0.6894 0.0805 0.7199
vn -0.7115 0.1272 0.6911
vn -0.7202 0.1861 -0.6684
vn 0.9943 0.1041 0.0216
vn -0.0216 0.0886 0.9958
vn -0.9844 0.1495 0.0927
vn 0.0488 0.1875 -0.9811
vn 0.7909 0.1246 -0.5991
vn 0.6243 0.1020 0.7745
vn -0.7401 0.0938 0.6659
vn -0.6438 0.0831 -0.7607
vn 0.9879 0.1136 0.1060
vn -0.1212 0.0973 0.9878
vn -0.9946 0.1015 -0.0222
vn 0.1262 0.1092 -0.9860
usemtl PineTree_Adult_green
s off
f 49//1 2//1 4//1 50//1
f 50//2 4//2 6//2 51//2
f 51//3 6//3 8//3 52//3
f 52//4 8//4 10//4 53//4
f 53//5 10//5 12//5 54//5
f 54//6 12//6 14//6 55//6
f 4//7 2//7 16//7 14//7 12//7 10//7 8//7 6//7
f 55//8 14//8 16//8 56//8
f 56//9 16//9 2//9 49//9
f 9//10 11//10 22//10 21//10
f 17//11 18//11 26//11 25//11
f 15//12 1//12 17//12 24//12
f 1//13 3//13 18//13 17//13
f 5//14 7//14 20//14 19//14
f 11//15 13//15 23//15 22//15
f 7//16 9//16 21//16 20//16
f 13//17 15//17 24//17 23//17
f 3//18 5//18 19//18 18//18
f 31//19 32//19 40//19 39//19
f 24//20 17//20 25//20 32//20
f 22//21 23//21 31//21 30//21
f 20//22 21//22 29//22 28//22
f 18//23 19//23 27//23 26//23
f 23//24 24//24 32//24 31//24
f 21//25 22//25 30//25 29//25
f 19//26 20//26 28//26 27//26
f 34//27 35//27 43//27 42//27
f 29//28 30//28 38//28 37//28
f 27//29 28//29 36//29 35//29
f 25//30 26//30 34//30 33//30
f 32//31 25//31 33//31 40//31
f 30//32 31//32 39//32 38//32
f 28//33 29//33 37//33 36//33
f 26//34 27//34 35//34 34//34
f 42//35 66//35 65//35 41//35
f 39//36 40//36 48//36 47//36
f 37//37 38//37 46//37 45//37
f 35//38 36//38 44//38 43//38
f 33//39 34//39 42//39 41//39
f 40//40 33//40 41//40 48//40
f 38//41 39//41 47//41 46//41
f 36//42 37//42 45//42 44//42
f 63//43 56//43 49//43 64//43
f 62//44 55//44 56//44 63//44
f 61//45 54//45 55//45 62//45
f 60//46 53//46 54//46 61//46
f 59//47 52//47 53//47 60//47
f 58//48 51//48 52//48 59//48
f 57//49 50//49 51//49 58//49
f 64//50 49//50 50//50 57//50
f 1//51 64//51 57//51 3//51
f 3//52 57//52 58//52 5//52
f 5//53 58//53 59//53 7//53
f 7//54 59//54 60//54 9//54
f 9//55 60//55 61//55 11//55
f 11//56 61//56 62//56 13//56
f 13//57 62//57 63//57 15//57
f 15//58 63//58 64//58 1//58
f 43//59 67//59 66//59 42//59
f 44//60 68//60 67//60 43//60
f 45//61 69//61 68//61 44//61
f 46//62 70//62 69//62 45//62
f 47//63 71//63 70//63 46//63
f 48//64 72//64 71//64 47//64
f 41//65 65//65 72//65 48//65
usemtl PineTree_Adult_brown
f 93//66 89//66 73//66 80//66
f 73//67 74//67 75//67 76//67 77//67 78//67 79//67 80//67
f 94//68 90//68 79//68 78//68
f 95//69 91//69 77//69 76//69
f 96//70 92//70 75//70 74//70
f 90//71 93//71 80//71 79//71
f 91//72 94//72 78//72 77//72
f 92//73 95//73 76//73 75//73
f 89//74 96//74 74//74 73//74
f 65//75 66//75 88//75 81//75
f 67//76 68//76 86//76 87//76
f 69//77 70//77 84//77 85//77
f 71//78 72//78 82//78 83//78
f 66//79 67//79 87//79 88//79
f 68//80 69//80 85//80 86//80
f 70//81 71//81 83//81 84//81
f 72//82 65//82 81//82 82//82
f 81//83 88//83 96//83 89//83
f 87//84 86//84 95//84 92//84
f 85//85 84//85 94//85 91//85
f 83//86 82//86 93//86 90//86
f 88//87 87//87 92//87 96//87
f 86//88 85//88 91//88 95//88
f 84//89 83//89 90//89 94//89
f 82//90 81//90 89//90 93//90
